<svg width="3856" height="1024" viewBox="0 0 3856 1024" fill="none" xmlns="http://www.w3.org/2000/svg">
<rect width="1024" height="1024" rx="202" fill="url(#paint0_linear)"/>
<g filter="url(#filter0_f)">
<rect x="181.332" y="194.372" width="656.129" height="94.7615" rx="14" fill="black" fill-opacity="0.18"/>
<rect x="181.332" y="334.58" width="656.129" height="94.7615" rx="14" fill="black" fill-opacity="0.18"/>
<rect x="181.332" y="474.789" width="656.129" height="93.7945" rx="14" fill="black" fill-opacity="0.18"/>
<rect x="181.332" y="614.03" width="656.129" height="94.7615" rx="14" fill="black" fill-opacity="0.18"/>
<rect x="181.332" y="754.238" width="656.129" height="94.7615" rx="14" fill="black" fill-opacity="0.18"/>
</g>
<g filter="url(#filter1_iiiii)">
<rect x="173" y="176" width="678" height="100" rx="14" fill="#34DC4A"/>
</g>
<g filter="url(#filter2_iiiii)">
<rect x="173" y="316.208" width="678" height="100" rx="14" fill="#A6E325"/>
</g>
<g filter="url(#filter3_iiiii)">
<rect x="173" y="456.417" width="678" height="100" rx="14" fill="#F0C31B"/>
</g>
<g filter="url(#filter4_iiiii)">
<rect x="173" y="595.658" width="678" height="100" rx="14" fill="#F1852E"/>
</g>
<g filter="url(#filter5_iiiii)">
<rect x="173" y="735.866" width="678" height="100" rx="14" fill="#C72525"/>
</g>
<path d="M1452 541.5C1456.33 541.5 1459.67 543.667 1462 548C1464.67 552 1466 557.167 1466 563.5C1466 571.167 1464.83 577.167 1462.5 581.5C1460.17 585.833 1456.5 589.667 1451.5 593C1422.83 612.333 1401.83 626.667 1388.5 636L1356.5 657.5C1343.83 726.5 1327.17 780.667 1306.5 820C1286.17 859.667 1260.17 879.5 1228.5 879.5C1211.5 879.5 1197.67 874.167 1187 863.5C1176.33 853.167 1171 839.5 1171 822.5C1171 798.833 1180.33 773.333 1199 746C1217.67 719 1252.67 685.667 1304 646L1307 626.5C1301.33 635.5 1293.83 642.5 1284.5 647.5C1275.5 652.167 1266.5 654.5 1257.5 654.5C1236.83 654.5 1220.33 647 1208 632C1195.67 617 1189.5 597.333 1189.5 573C1189.5 546.333 1195.67 521.167 1208 497.5C1220.33 473.5 1236.67 454.333 1257 440C1277.67 425.333 1299.5 418 1322.5 418C1329.83 418 1334.67 419.5 1337 422.5C1339.67 425.167 1341.83 430.167 1343.5 437.5C1349.83 436.167 1357.17 435.5 1365.5 435.5C1373.83 435.5 1379.67 436.833 1383 439.5C1386.67 441.833 1388.5 446.667 1388.5 454C1388.5 458 1388.33 461.167 1388 463.5C1386.67 473.833 1382.5 500 1375.5 542C1374.17 550 1372.67 558.833 1371 568.5C1369.67 577.833 1368.17 587.833 1366.5 598.5C1392.17 578.5 1416.83 560.833 1440.5 545.5C1444.83 542.833 1448.67 541.5 1452 541.5ZM1275.5 604C1283.17 604 1290.5 599.333 1297.5 590C1304.5 580.667 1309.5 567.333 1312.5 550L1328.5 464.5C1314.83 464.833 1302.17 470.167 1290.5 480.5C1278.83 490.5 1269.5 503.833 1262.5 520.5C1255.5 537.167 1252 554.833 1252 573.5C1252 583.833 1254 591.5 1258 596.5C1262.33 601.5 1268.17 604 1275.5 604ZM1234 831C1242.33 831 1251.67 821 1262 801C1272.67 781 1282.83 749.167 1292.5 705.5C1266.83 727.5 1248.33 747.333 1237 765C1225.67 782.667 1220 798.167 1220 811.5C1220 817.167 1221 821.833 1223 825.5C1225.33 829.167 1229 831 1234 831ZM1465.39 654.5C1452.72 654.5 1443.72 647.833 1438.39 634.5C1433.39 621.167 1430.89 599.833 1430.89 570.5C1430.89 527.167 1437.05 486 1449.39 447C1452.39 437.333 1457.22 430.333 1463.89 426C1470.89 421.333 1480.55 419 1492.89 419C1499.55 419 1504.22 419.833 1506.89 421.5C1509.55 423.167 1510.89 426.333 1510.89 431C1510.89 436.333 1508.39 448.333 1503.39 467C1500.05 480.333 1497.39 492 1495.39 502C1493.39 512 1491.72 524.333 1490.39 539C1501.39 510.333 1513.72 487 1527.39 469C1541.05 451 1554.39 438.167 1567.39 430.5C1580.72 422.833 1592.89 419 1603.89 419C1625.55 419 1636.39 429.833 1636.39 451.5C1636.39 455.833 1634.89 466.333 1631.89 483C1629.22 496.333 1627.89 504.667 1627.89 508C1627.89 519.667 1632.05 525.5 1640.39 525.5C1649.72 525.5 1661.72 518.167 1676.39 503.5C1680.72 499.167 1685.22 497 1689.89 497C1694.22 497 1697.55 499 1699.89 503C1702.55 506.667 1703.89 511.667 1703.89 518C1703.89 530.333 1700.55 540 1693.89 547C1684.55 556.667 1673.55 565 1660.89 572C1648.55 578.667 1635.39 582 1621.39 582C1603.72 582 1590.22 577.5 1580.89 568.5C1571.89 559.5 1567.39 547.333 1567.39 532C1567.39 527 1567.89 522 1568.89 517C1569.55 510.333 1569.89 505.833 1569.89 503.5C1569.89 498.167 1568.05 495.5 1564.39 495.5C1559.39 495.5 1552.72 501.167 1544.39 512.5C1536.39 523.5 1528.39 538.167 1520.39 556.5C1512.39 574.833 1505.89 594.167 1500.89 614.5C1497.22 630.167 1492.89 640.833 1487.89 646.5C1483.22 651.833 1475.72 654.5 1465.39 654.5ZM1718.93 654.5C1698.26 654.5 1681.76 647 1669.43 632C1657.09 617 1650.93 597.333 1650.93 573C1650.93 546.333 1657.09 521.167 1669.43 497.5C1681.76 473.5 1698.09 454.333 1718.43 440C1739.09 425.333 1760.93 418 1783.93 418C1791.26 418 1796.09 419.5 1798.43 422.5C1801.09 425.167 1803.26 430.167 1804.93 437.5C1811.93 436.167 1819.26 435.5 1826.93 435.5C1843.26 435.5 1851.43 441.333 1851.43 453C1851.43 460 1848.93 476.667 1843.93 503C1836.26 541.333 1832.43 568 1832.43 583C1832.43 588 1833.59 592 1835.93 595C1838.59 598 1841.93 599.5 1845.93 599.5C1852.26 599.5 1859.93 595.5 1868.93 587.5C1877.93 579.167 1890.09 565.833 1905.43 547.5C1909.43 542.833 1913.93 540.5 1918.93 540.5C1923.26 540.5 1926.59 542.5 1928.93 546.5C1931.59 550.5 1932.93 556 1932.93 563C1932.93 576.333 1929.76 586.667 1923.43 594C1909.76 611 1895.26 625.333 1879.93 637C1864.59 648.667 1849.76 654.5 1835.43 654.5C1824.43 654.5 1814.26 650.833 1804.93 643.5C1795.93 635.833 1789.09 625.5 1784.43 612.5C1767.09 640.5 1745.26 654.5 1718.93 654.5ZM1736.93 604C1744.26 604 1751.26 599.667 1757.93 591C1764.59 582.333 1769.43 570.833 1772.43 556.5L1790.93 464.5C1776.93 464.833 1763.93 470.167 1751.93 480.5C1740.26 490.5 1730.93 503.833 1723.93 520.5C1716.93 537.167 1713.43 554.833 1713.43 573.5C1713.43 583.833 1715.43 591.5 1719.43 596.5C1723.76 601.5 1729.59 604 1736.93 604ZM2176.29 540.5C2180.62 540.5 2183.96 542.5 2186.29 546.5C2188.96 550.5 2190.29 556 2190.29 563C2190.29 576.333 2187.12 586.667 2180.79 594C2167.12 610.667 2152.12 625 2135.79 637C2119.46 648.667 2103.29 654.5 2087.29 654.5C2061.96 654.5 2042.62 639.667 2029.29 610C2015.29 627.667 2002.96 639.5 1992.29 645.5C1981.96 651.5 1969.79 654.5 1955.79 654.5C1935.46 654.5 1918.62 647 1905.29 632C1892.29 616.667 1885.79 596.833 1885.79 572.5C1885.79 545.833 1891.46 521.167 1902.79 498.5C1914.12 475.5 1929.62 456.833 1949.29 442.5C1969.29 427.833 1991.62 419.167 2016.29 416.5C2022.62 351.833 2034.62 296.667 2052.29 251C2070.29 205 2093.79 182 2122.79 182C2137.12 182 2148.96 188.5 2158.29 201.5C2167.96 214.5 2172.79 234.167 2172.79 260.5C2172.79 297.833 2163.62 341.5 2145.29 391.5C2126.96 441.5 2102.46 492.833 2071.79 545.5C2073.12 564.833 2075.96 578.667 2080.29 587C2084.96 595.333 2090.79 599.5 2097.79 599.5C2106.79 599.5 2115.96 595.5 2125.29 587.5C2134.62 579.5 2147.12 566.167 2162.79 547.5C2166.79 542.833 2171.29 540.5 2176.29 540.5ZM2117.29 231C2110.96 231 2104.62 242.333 2098.29 265C2091.96 287.333 2086.46 316.667 2081.79 353C2077.46 389.333 2074.29 427.333 2072.29 467C2109.62 385.667 2128.29 320.333 2128.29 271C2128.29 258.333 2127.12 248.5 2124.79 241.5C2122.79 234.5 2120.29 231 2117.29 231ZM1973.29 604C1979.62 604 1985.96 601.5 1992.29 596.5C1998.62 591.167 2006.62 581.5 2016.29 567.5C2012.96 549.5 2011.29 529.333 2011.29 507C2011.29 499 2011.62 486 2012.29 468C1993.96 473.667 1978.62 486 1966.29 505C1954.29 523.667 1948.29 544.5 1948.29 567.5C1948.29 591.833 1956.62 604 1973.29 604ZM2372.61 540.5C2376.95 540.5 2380.28 542.5 2382.61 546.5C2385.28 550.5 2386.61 556 2386.61 563C2386.61 576.333 2383.45 586.667 2377.11 594C2364.78 609 2347.28 622.833 2324.61 635.5C2302.28 648.167 2278.28 654.5 2252.61 654.5C2217.61 654.5 2190.45 645 2171.11 626C2151.78 607 2142.11 581 2142.11 548C2142.11 525 2146.95 503.667 2156.61 484C2166.28 464 2179.61 448.167 2196.61 436.5C2213.95 424.833 2233.45 419 2255.11 419C2274.45 419 2289.95 424.833 2301.61 436.5C2313.28 447.833 2319.11 463.333 2319.11 483C2319.11 506 2310.78 525.833 2294.11 542.5C2277.78 558.833 2249.95 571.833 2210.61 581.5C2218.95 596.833 2234.78 604.5 2258.11 604.5C2273.11 604.5 2290.11 599.333 2309.11 589C2328.45 578.333 2345.11 564.5 2359.11 547.5C2363.11 542.833 2367.61 540.5 2372.61 540.5ZM2246.61 468C2234.28 468 2223.78 475.167 2215.11 489.5C2206.78 503.833 2202.61 521.167 2202.61 541.5V542.5C2222.28 537.833 2237.78 530.833 2249.11 521.5C2260.45 512.167 2266.11 501.333 2266.11 489C2266.11 482.667 2264.28 477.667 2260.61 474C2257.28 470 2252.61 468 2246.61 468ZM2611.9 498.5C2616.24 498.5 2619.57 500.667 2621.9 505C2624.24 509.333 2625.4 514.833 2625.4 521.5C2625.4 529.833 2624.24 536.333 2621.9 541C2619.57 545.333 2615.9 548.333 2610.9 550C2590.9 557 2568.9 561 2544.9 562C2538.24 589.667 2525.57 612 2506.9 629C2488.57 646 2468.24 654.5 2445.9 654.5C2412.24 654.5 2387.74 641.667 2372.4 616C2357.07 590.333 2349.4 553.167 2349.4 504.5C2349.4 461.5 2354.74 414.833 2365.4 364.5C2376.07 313.833 2391.57 270.833 2411.9 235.5C2432.57 199.833 2457.07 182 2485.4 182C2500.74 182 2513.07 188.667 2522.4 202C2531.74 215 2536.4 232 2536.4 253C2536.4 280.333 2531.24 307.5 2520.9 334.5C2510.57 361.5 2493.4 389.833 2469.4 419.5C2491.74 421.167 2509.9 430.5 2523.9 447.5C2537.9 464.167 2546.24 484.833 2548.9 509.5C2564.57 508.5 2583.24 505.167 2604.9 499.5C2606.9 498.833 2609.24 498.5 2611.9 498.5ZM2473.9 231.5C2467.24 231.5 2459.9 241.5 2451.9 261.5C2444.24 281.167 2437.07 308 2430.4 342C2423.74 376 2418.74 413.167 2415.4 453.5C2437.4 413.167 2454.9 377.667 2467.9 347C2481.24 316 2487.9 288.5 2487.9 264.5C2487.9 253.833 2486.57 245.667 2483.9 240C2481.57 234.333 2478.24 231.5 2473.9 231.5ZM2447.9 601.5C2458.24 601.5 2467.4 597.167 2475.4 588.5C2483.4 579.833 2488.74 567.333 2491.4 551C2481.07 544 2473.07 534.833 2467.4 523.5C2462.07 512.167 2459.4 500.167 2459.4 487.5C2459.4 482.833 2460.07 476.5 2461.4 468.5H2459.9C2446.24 468.5 2434.74 475.333 2425.4 489C2416.4 502.333 2411.9 520.333 2411.9 543C2411.9 562 2415.4 576.5 2422.4 586.5C2429.74 596.5 2438.24 601.5 2447.9 601.5ZM2837.23 498.5C2841.56 498.5 2844.9 500.667 2847.23 505C2849.56 509.333 2850.73 514.833 2850.73 521.5C2850.73 537.5 2845.9 547 2836.23 550C2816.23 557 2794.23 561 2770.23 562C2763.9 590 2751.4 612.5 2732.73 629.5C2714.06 646.167 2692.9 654.5 2669.23 654.5C2649.23 654.5 2632.06 649.667 2617.73 640C2603.73 630.333 2593.06 617.5 2585.73 601.5C2578.4 585.5 2574.73 568.167 2574.73 549.5C2574.73 524.167 2579.56 501.667 2589.23 482C2598.9 462 2612.23 446.5 2629.23 435.5C2646.23 424.167 2665.06 418.5 2685.73 418.5C2711.06 418.5 2731.4 427.333 2746.73 445C2762.4 462.333 2771.56 483.833 2774.23 509.5C2789.9 508.5 2808.56 505.167 2830.23 499.5C2832.9 498.833 2835.23 498.5 2837.23 498.5ZM2673.23 601.5C2683.9 601.5 2693.06 597.167 2700.73 588.5C2708.73 579.833 2714.06 567.333 2716.73 551C2706.4 544 2698.4 534.833 2692.73 523.5C2687.4 512.167 2684.73 500.167 2684.73 487.5C2684.73 482.167 2685.23 476.833 2686.23 471.5H2683.73C2670.4 471.5 2659.23 478 2650.23 491C2641.56 503.667 2637.23 521.667 2637.23 545C2637.23 563.333 2640.73 577.333 2647.73 587C2655.06 596.667 2663.56 601.5 2673.23 601.5ZM3062.82 498.5C3067.15 498.5 3070.48 500.667 3072.82 505C3075.15 509.333 3076.32 514.833 3076.32 521.5C3076.32 537.5 3071.48 547 3061.82 550C3041.82 557 3019.82 561 2995.82 562C2989.48 590 2976.98 612.5 2958.32 629.5C2939.65 646.167 2918.48 654.5 2894.82 654.5C2874.82 654.5 2857.65 649.667 2843.32 640C2829.32 630.333 2818.65 617.5 2811.32 601.5C2803.98 585.5 2800.32 568.167 2800.32 549.5C2800.32 524.167 2805.15 501.667 2814.82 482C2824.48 462 2837.82 446.5 2854.82 435.5C2871.82 424.167 2890.65 418.5 2911.32 418.5C2936.65 418.5 2956.98 427.333 2972.32 445C2987.98 462.333 2997.15 483.833 2999.82 509.5C3015.48 508.5 3034.15 505.167 3055.82 499.5C3058.48 498.833 3060.82 498.5 3062.82 498.5ZM2898.82 601.5C2909.48 601.5 2918.65 597.167 2926.32 588.5C2934.32 579.833 2939.65 567.333 2942.32 551C2931.98 544 2923.98 534.833 2918.32 523.5C2912.98 512.167 2910.32 500.167 2910.32 487.5C2910.32 482.167 2910.82 476.833 2911.82 471.5H2909.32C2895.98 471.5 2884.82 478 2875.82 491C2867.15 503.667 2862.82 521.667 2862.82 545C2862.82 563.333 2866.32 577.333 2873.32 587C2880.65 596.667 2889.15 601.5 2898.82 601.5ZM3322.4 540.5C3326.74 540.5 3330.07 542.5 3332.4 546.5C3335.07 550.5 3336.4 556 3336.4 563C3336.4 576.333 3333.24 586.667 3326.9 594C3311.9 612.333 3296.74 627 3281.4 638C3266.07 649 3247.9 654.5 3226.9 654.5C3201.24 654.5 3180.57 647.167 3164.9 632.5C3149.24 617.833 3141.4 598.333 3141.4 574C3141.4 561 3148.07 551.667 3161.4 546C3176.07 539.667 3186.57 533 3192.9 526C3199.24 518.667 3202.4 509.833 3202.4 499.5C3202.4 493.5 3201.07 489 3198.4 486C3196.07 483 3193.07 481.5 3189.4 481.5C3180.4 481.5 3170.4 488 3159.4 501C3148.74 514 3138.74 530.833 3129.4 551.5C3120.07 571.833 3112.74 592.833 3107.4 614.5C3103.74 630.167 3099.4 640.833 3094.4 646.5C3089.74 651.833 3082.24 654.5 3071.9 654.5C3061.57 654.5 3053.9 650.833 3048.9 643.5C3044.24 635.833 3041.07 624.167 3039.4 608.5C3037.74 592.833 3036.9 569.833 3036.9 539.5C3036.9 488.167 3042.07 434.667 3052.4 379C3063.07 323.333 3078.57 276.667 3098.9 239C3119.57 201 3144.24 182 3172.9 182C3188.24 182 3200.57 188.667 3209.9 202C3219.57 215 3224.4 232 3224.4 253C3224.4 286.667 3214.57 321.667 3194.9 358C3175.24 394 3143.24 436.167 3098.9 484.5C3097.9 501.833 3097.4 519.667 3097.4 538C3113.4 496.333 3131.74 466.167 3152.4 447.5C3173.07 428.5 3192.4 419 3210.4 419C3227.07 419 3240.4 424.667 3250.4 436C3260.74 447.333 3265.9 461.333 3265.9 478C3265.9 496.333 3261.24 513.167 3251.9 528.5C3242.57 543.833 3226.57 557.5 3203.9 569.5C3205.24 578.5 3209.24 585.833 3215.9 591.5C3222.9 596.833 3231.24 599.5 3240.9 599.5C3251.24 599.5 3261.24 595.5 3270.9 587.5C3280.57 579.5 3293.24 566.167 3308.9 547.5C3312.9 542.833 3317.4 540.5 3322.4 540.5ZM3162.4 231.5C3156.4 231.5 3149.74 240.167 3142.4 257.5C3135.07 274.5 3127.9 297.667 3120.9 327C3114.24 356 3108.74 387.667 3104.4 422C3125.07 397.667 3142.07 371.167 3155.4 342.5C3169.07 313.833 3175.9 287.833 3175.9 264.5C3175.9 253.833 3174.74 245.667 3172.4 240C3170.07 234.333 3166.74 231.5 3162.4 231.5ZM3485.6 540.5C3489.93 540.5 3493.26 542.5 3495.6 546.5C3498.26 550.5 3499.6 556 3499.6 563C3499.6 576.333 3496.43 586.667 3490.1 594C3475.76 611.667 3460.1 626.167 3443.1 637.5C3426.43 648.833 3407.43 654.5 3386.1 654.5C3356.76 654.5 3334.93 641.167 3320.6 614.5C3306.6 587.833 3299.6 553.333 3299.6 511C3299.6 470.333 3304.76 424 3315.1 372C3325.76 320 3341.26 275.333 3361.6 238C3382.26 200.667 3406.76 182 3435.1 182C3451.1 182 3463.6 189.5 3472.6 204.5C3481.93 219.167 3486.6 240.333 3486.6 268C3486.6 307.667 3475.6 353.667 3453.6 406C3431.6 458.333 3401.76 510.167 3364.1 561.5C3366.43 575.167 3370.26 585 3375.6 591C3380.93 596.667 3387.93 599.5 3396.6 599.5C3410.26 599.5 3422.26 595.667 3432.6 588C3442.93 580 3456.1 566.5 3472.1 547.5C3476.1 542.833 3480.6 540.5 3485.6 540.5ZM3424.1 231.5C3416.43 231.5 3407.76 245.333 3398.1 273C3388.43 300.667 3379.93 335 3372.6 376C3365.26 417 3361.26 456.333 3360.6 494C3384.26 455 3403.1 416 3417.1 377C3431.1 337.667 3438.1 301.833 3438.1 269.5C3438.1 244.167 3433.43 231.5 3424.1 231.5ZM3682.18 540.5C3686.52 540.5 3689.85 542.5 3692.18 546.5C3694.85 550.5 3696.18 556 3696.18 563C3696.18 576.333 3693.02 586.667 3686.68 594C3674.35 609 3656.85 622.833 3634.18 635.5C3611.85 648.167 3587.85 654.5 3562.18 654.5C3527.18 654.5 3500.02 645 3480.68 626C3461.35 607 3451.68 581 3451.68 548C3451.68 525 3456.52 503.667 3466.18 484C3475.85 464 3489.18 448.167 3506.18 436.5C3523.52 424.833 3543.02 419 3564.68 419C3584.02 419 3599.52 424.833 3611.18 436.5C3622.85 447.833 3628.68 463.333 3628.68 483C3628.68 506 3620.35 525.833 3603.68 542.5C3587.35 558.833 3559.52 571.833 3520.18 581.5C3528.52 596.833 3544.35 604.5 3567.68 604.5C3582.68 604.5 3599.68 599.333 3618.68 589C3638.02 578.333 3654.68 564.5 3668.68 547.5C3672.68 542.833 3677.18 540.5 3682.18 540.5ZM3556.18 468C3543.85 468 3533.35 475.167 3524.68 489.5C3516.35 503.833 3512.18 521.167 3512.18 541.5V542.5C3531.85 537.833 3547.35 530.833 3558.68 521.5C3570.02 512.167 3575.68 501.333 3575.68 489C3575.68 482.667 3573.85 477.667 3570.18 474C3566.85 470 3562.18 468 3556.18 468ZM3737.97 466.5C3737.31 483.167 3736.97 496.167 3736.97 505.5C3736.97 529.5 3738.14 548.333 3740.47 562C3743.14 575.333 3747.31 585 3752.97 591C3758.97 596.667 3767.14 599.5 3777.47 599.5C3782.81 599.5 3789.14 597.833 3796.47 594.5C3803.81 591.167 3810.47 586.833 3816.47 581.5C3820.14 578.167 3823.81 576.5 3827.47 576.5C3831.47 576.5 3834.64 578.833 3836.97 583.5C3839.64 587.833 3840.97 593.167 3840.97 599.5C3840.97 605.833 3839.64 612 3836.97 618C3834.64 624 3830.97 629 3825.97 633C3808.64 647.333 3788.97 654.5 3766.97 654.5C3735.31 654.5 3712.14 641.333 3697.47 615C3682.81 588.333 3675.47 553.667 3675.47 511C3675.47 496.333 3675.97 481.5 3676.97 466.5H3657.47C3647.47 466.5 3640.64 464.667 3636.97 461C3633.64 457.333 3631.97 451.5 3631.97 443.5C3631.97 424.833 3639.47 415.5 3654.47 415.5H3682.97C3688.64 378.833 3697.31 345.333 3708.97 315C3720.64 284.667 3734.64 260.5 3750.97 242.5C3767.64 224.5 3785.47 215.5 3804.47 215.5C3818.47 215.5 3829.47 221.667 3837.47 234C3845.47 246.333 3849.47 261.833 3849.47 280.5C3849.47 332.167 3827.81 377.167 3784.47 415.5H3840.47C3845.81 415.5 3849.64 416.667 3851.97 419C3854.31 421.333 3855.47 425.667 3855.47 432C3855.47 455 3836.64 466.5 3798.97 466.5H3737.97ZM3790.97 263.5C3785.97 263.5 3780.31 269.833 3773.97 282.5C3767.97 294.833 3762.14 312.167 3756.47 334.5C3751.14 356.5 3746.64 381 3742.97 408C3762.64 391 3777.31 372 3786.97 351C3796.97 329.667 3801.97 310.333 3801.97 293C3801.97 273.333 3798.31 263.5 3790.97 263.5Z" fill="white"/>
<defs>
<filter id="filter0_f" x="171.332" y="184.372" width="676.129" height="674.628" filterUnits="userSpaceOnUse" color-interpolation-filters="sRGB">
<feFlood flood-opacity="0" result="BackgroundImageFix"/>
<feBlend mode="normal" in="SourceGraphic" in2="BackgroundImageFix" result="shape"/>
<feGaussianBlur stdDeviation="5" result="effect1_foregroundBlur"/>
</filter>
<filter id="filter1_iiiii" x="173" y="146" width="678" height="150" filterUnits="userSpaceOnUse" color-interpolation-filters="sRGB">
<feFlood flood-opacity="0" result="BackgroundImageFix"/>
<feBlend mode="normal" in="SourceGraphic" in2="BackgroundImageFix" result="shape"/>
<feColorMatrix in="SourceAlpha" type="matrix" values="0 0 0 0 0 0 0 0 0 0 0 0 0 0 0 0 0 0 127 0" result="hardAlpha"/>
<feOffset dy="4"/>
<feGaussianBlur stdDeviation="20"/>
<feComposite in2="hardAlpha" operator="arithmetic" k2="-1" k3="1"/>
<feColorMatrix type="matrix" values="0 0 0 0 1 0 0 0 0 1 0 0 0 0 1 0 0 0 0.5 0"/>
<feBlend mode="overlay" in2="shape" result="effect1_innerShadow"/>
<feColorMatrix in="SourceAlpha" type="matrix" values="0 0 0 0 0 0 0 0 0 0 0 0 0 0 0 0 0 0 127 0" result="hardAlpha"/>
<feOffset dy="-30"/>
<feGaussianBlur stdDeviation="30"/>
<feComposite in2="hardAlpha" operator="arithmetic" k2="-1" k3="1"/>
<feColorMatrix type="matrix" values="0 0 0 0 0 0 0 0 0 0 0 0 0 0 0 0 0 0 0.5 0"/>
<feBlend mode="overlay" in2="effect1_innerShadow" result="effect2_innerShadow"/>
<feColorMatrix in="SourceAlpha" type="matrix" values="0 0 0 0 0 0 0 0 0 0 0 0 0 0 0 0 0 0 127 0" result="hardAlpha"/>
<feOffset dy="5"/>
<feGaussianBlur stdDeviation="7.5"/>
<feComposite in2="hardAlpha" operator="arithmetic" k2="-1" k3="1"/>
<feColorMatrix type="matrix" values="0 0 0 0 1 0 0 0 0 1 0 0 0 0 1 0 0 0 0.7 0"/>
<feBlend mode="overlay" in2="effect2_innerShadow" result="effect3_innerShadow"/>
<feColorMatrix in="SourceAlpha" type="matrix" values="0 0 0 0 0 0 0 0 0 0 0 0 0 0 0 0 0 0 127 0" result="hardAlpha"/>
<feOffset dy="-40"/>
<feGaussianBlur stdDeviation="10"/>
<feComposite in2="hardAlpha" operator="arithmetic" k2="-1" k3="1"/>
<feColorMatrix type="matrix" values="0 0 0 0 0 0 0 0 0 0 0 0 0 0 0 0 0 0 0.25 0"/>
<feBlend mode="overlay" in2="effect3_innerShadow" result="effect4_innerShadow"/>
<feColorMatrix in="SourceAlpha" type="matrix" values="0 0 0 0 0 0 0 0 0 0 0 0 0 0 0 0 0 0 127 0" result="hardAlpha"/>
<feOffset dy="20"/>
<feGaussianBlur stdDeviation="10"/>
<feComposite in2="hardAlpha" operator="arithmetic" k2="-1" k3="1"/>
<feColorMatrix type="matrix" values="0 0 0 0 1 0 0 0 0 1 0 0 0 0 1 0 0 0 0.25 0"/>
<feBlend mode="overlay" in2="effect4_innerShadow" result="effect5_innerShadow"/>
</filter>
<filter id="filter2_iiiii" x="173" y="286.208" width="678" height="150" filterUnits="userSpaceOnUse" color-interpolation-filters="sRGB">
<feFlood flood-opacity="0" result="BackgroundImageFix"/>
<feBlend mode="normal" in="SourceGraphic" in2="BackgroundImageFix" result="shape"/>
<feColorMatrix in="SourceAlpha" type="matrix" values="0 0 0 0 0 0 0 0 0 0 0 0 0 0 0 0 0 0 127 0" result="hardAlpha"/>
<feOffset dy="4"/>
<feGaussianBlur stdDeviation="20"/>
<feComposite in2="hardAlpha" operator="arithmetic" k2="-1" k3="1"/>
<feColorMatrix type="matrix" values="0 0 0 0 1 0 0 0 0 1 0 0 0 0 1 0 0 0 0.5 0"/>
<feBlend mode="overlay" in2="shape" result="effect1_innerShadow"/>
<feColorMatrix in="SourceAlpha" type="matrix" values="0 0 0 0 0 0 0 0 0 0 0 0 0 0 0 0 0 0 127 0" result="hardAlpha"/>
<feOffset dy="-30"/>
<feGaussianBlur stdDeviation="30"/>
<feComposite in2="hardAlpha" operator="arithmetic" k2="-1" k3="1"/>
<feColorMatrix type="matrix" values="0 0 0 0 0 0 0 0 0 0 0 0 0 0 0 0 0 0 0.5 0"/>
<feBlend mode="overlay" in2="effect1_innerShadow" result="effect2_innerShadow"/>
<feColorMatrix in="SourceAlpha" type="matrix" values="0 0 0 0 0 0 0 0 0 0 0 0 0 0 0 0 0 0 127 0" result="hardAlpha"/>
<feOffset dy="5"/>
<feGaussianBlur stdDeviation="7.5"/>
<feComposite in2="hardAlpha" operator="arithmetic" k2="-1" k3="1"/>
<feColorMatrix type="matrix" values="0 0 0 0 1 0 0 0 0 1 0 0 0 0 1 0 0 0 0.7 0"/>
<feBlend mode="overlay" in2="effect2_innerShadow" result="effect3_innerShadow"/>
<feColorMatrix in="SourceAlpha" type="matrix" values="0 0 0 0 0 0 0 0 0 0 0 0 0 0 0 0 0 0 127 0" result="hardAlpha"/>
<feOffset dy="-40"/>
<feGaussianBlur stdDeviation="10"/>
<feComposite in2="hardAlpha" operator="arithmetic" k2="-1" k3="1"/>
<feColorMatrix type="matrix" values="0 0 0 0 0 0 0 0 0 0 0 0 0 0 0 0 0 0 0.25 0"/>
<feBlend mode="overlay" in2="effect3_innerShadow" result="effect4_innerShadow"/>
<feColorMatrix in="SourceAlpha" type="matrix" values="0 0 0 0 0 0 0 0 0 0 0 0 0 0 0 0 0 0 127 0" result="hardAlpha"/>
<feOffset dy="20"/>
<feGaussianBlur stdDeviation="10"/>
<feComposite in2="hardAlpha" operator="arithmetic" k2="-1" k3="1"/>
<feColorMatrix type="matrix" values="0 0 0 0 1 0 0 0 0 1 0 0 0 0 1 0 0 0 0.25 0"/>
<feBlend mode="overlay" in2="effect4_innerShadow" result="effect5_innerShadow"/>
</filter>
<filter id="filter3_iiiii" x="173" y="426.417" width="678" height="150" filterUnits="userSpaceOnUse" color-interpolation-filters="sRGB">
<feFlood flood-opacity="0" result="BackgroundImageFix"/>
<feBlend mode="normal" in="SourceGraphic" in2="BackgroundImageFix" result="shape"/>
<feColorMatrix in="SourceAlpha" type="matrix" values="0 0 0 0 0 0 0 0 0 0 0 0 0 0 0 0 0 0 127 0" result="hardAlpha"/>
<feOffset dy="4"/>
<feGaussianBlur stdDeviation="20"/>
<feComposite in2="hardAlpha" operator="arithmetic" k2="-1" k3="1"/>
<feColorMatrix type="matrix" values="0 0 0 0 1 0 0 0 0 1 0 0 0 0 1 0 0 0 0.5 0"/>
<feBlend mode="overlay" in2="shape" result="effect1_innerShadow"/>
<feColorMatrix in="SourceAlpha" type="matrix" values="0 0 0 0 0 0 0 0 0 0 0 0 0 0 0 0 0 0 127 0" result="hardAlpha"/>
<feOffset dy="-30"/>
<feGaussianBlur stdDeviation="30"/>
<feComposite in2="hardAlpha" operator="arithmetic" k2="-1" k3="1"/>
<feColorMatrix type="matrix" values="0 0 0 0 0 0 0 0 0 0 0 0 0 0 0 0 0 0 0.5 0"/>
<feBlend mode="overlay" in2="effect1_innerShadow" result="effect2_innerShadow"/>
<feColorMatrix in="SourceAlpha" type="matrix" values="0 0 0 0 0 0 0 0 0 0 0 0 0 0 0 0 0 0 127 0" result="hardAlpha"/>
<feOffset dy="5"/>
<feGaussianBlur stdDeviation="7.5"/>
<feComposite in2="hardAlpha" operator="arithmetic" k2="-1" k3="1"/>
<feColorMatrix type="matrix" values="0 0 0 0 1 0 0 0 0 1 0 0 0 0 1 0 0 0 0.7 0"/>
<feBlend mode="overlay" in2="effect2_innerShadow" result="effect3_innerShadow"/>
<feColorMatrix in="SourceAlpha" type="matrix" values="0 0 0 0 0 0 0 0 0 0 0 0 0 0 0 0 0 0 127 0" result="hardAlpha"/>
<feOffset dy="-40"/>
<feGaussianBlur stdDeviation="10"/>
<feComposite in2="hardAlpha" operator="arithmetic" k2="-1" k3="1"/>
<feColorMatrix type="matrix" values="0 0 0 0 0 0 0 0 0 0 0 0 0 0 0 0 0 0 0.25 0"/>
<feBlend mode="overlay" in2="effect3_innerShadow" result="effect4_innerShadow"/>
<feColorMatrix in="SourceAlpha" type="matrix" values="0 0 0 0 0 0 0 0 0 0 0 0 0 0 0 0 0 0 127 0" result="hardAlpha"/>
<feOffset dy="20"/>
<feGaussianBlur stdDeviation="10"/>
<feComposite in2="hardAlpha" operator="arithmetic" k2="-1" k3="1"/>
<feColorMatrix type="matrix" values="0 0 0 0 1 0 0 0 0 1 0 0 0 0 1 0 0 0 0.25 0"/>
<feBlend mode="overlay" in2="effect4_innerShadow" result="effect5_innerShadow"/>
</filter>
<filter id="filter4_iiiii" x="173" y="565.658" width="678" height="150" filterUnits="userSpaceOnUse" color-interpolation-filters="sRGB">
<feFlood flood-opacity="0" result="BackgroundImageFix"/>
<feBlend mode="normal" in="SourceGraphic" in2="BackgroundImageFix" result="shape"/>
<feColorMatrix in="SourceAlpha" type="matrix" values="0 0 0 0 0 0 0 0 0 0 0 0 0 0 0 0 0 0 127 0" result="hardAlpha"/>
<feOffset dy="4"/>
<feGaussianBlur stdDeviation="20"/>
<feComposite in2="hardAlpha" operator="arithmetic" k2="-1" k3="1"/>
<feColorMatrix type="matrix" values="0 0 0 0 1 0 0 0 0 1 0 0 0 0 1 0 0 0 0.5 0"/>
<feBlend mode="overlay" in2="shape" result="effect1_innerShadow"/>
<feColorMatrix in="SourceAlpha" type="matrix" values="0 0 0 0 0 0 0 0 0 0 0 0 0 0 0 0 0 0 127 0" result="hardAlpha"/>
<feOffset dy="-30"/>
<feGaussianBlur stdDeviation="30"/>
<feComposite in2="hardAlpha" operator="arithmetic" k2="-1" k3="1"/>
<feColorMatrix type="matrix" values="0 0 0 0 0 0 0 0 0 0 0 0 0 0 0 0 0 0 0.5 0"/>
<feBlend mode="overlay" in2="effect1_innerShadow" result="effect2_innerShadow"/>
<feColorMatrix in="SourceAlpha" type="matrix" values="0 0 0 0 0 0 0 0 0 0 0 0 0 0 0 0 0 0 127 0" result="hardAlpha"/>
<feOffset dy="5"/>
<feGaussianBlur stdDeviation="7.5"/>
<feComposite in2="hardAlpha" operator="arithmetic" k2="-1" k3="1"/>
<feColorMatrix type="matrix" values="0 0 0 0 1 0 0 0 0 1 0 0 0 0 1 0 0 0 0.7 0"/>
<feBlend mode="overlay" in2="effect2_innerShadow" result="effect3_innerShadow"/>
<feColorMatrix in="SourceAlpha" type="matrix" values="0 0 0 0 0 0 0 0 0 0 0 0 0 0 0 0 0 0 127 0" result="hardAlpha"/>
<feOffset dy="-40"/>
<feGaussianBlur stdDeviation="10"/>
<feComposite in2="hardAlpha" operator="arithmetic" k2="-1" k3="1"/>
<feColorMatrix type="matrix" values="0 0 0 0 0 0 0 0 0 0 0 0 0 0 0 0 0 0 0.25 0"/>
<feBlend mode="overlay" in2="effect3_innerShadow" result="effect4_innerShadow"/>
<feColorMatrix in="SourceAlpha" type="matrix" values="0 0 0 0 0 0 0 0 0 0 0 0 0 0 0 0 0 0 127 0" result="hardAlpha"/>
<feOffset dy="20"/>
<feGaussianBlur stdDeviation="10"/>
<feComposite in2="hardAlpha" operator="arithmetic" k2="-1" k3="1"/>
<feColorMatrix type="matrix" values="0 0 0 0 1 0 0 0 0 1 0 0 0 0 1 0 0 0 0.25 0"/>
<feBlend mode="overlay" in2="effect4_innerShadow" result="effect5_innerShadow"/>
</filter>
<filter id="filter5_iiiii" x="173" y="705.866" width="678" height="150" filterUnits="userSpaceOnUse" color-interpolation-filters="sRGB">
<feFlood flood-opacity="0" result="BackgroundImageFix"/>
<feBlend mode="normal" in="SourceGraphic" in2="BackgroundImageFix" result="shape"/>
<feColorMatrix in="SourceAlpha" type="matrix" values="0 0 0 0 0 0 0 0 0 0 0 0 0 0 0 0 0 0 127 0" result="hardAlpha"/>
<feOffset dy="4"/>
<feGaussianBlur stdDeviation="20"/>
<feComposite in2="hardAlpha" operator="arithmetic" k2="-1" k3="1"/>
<feColorMatrix type="matrix" values="0 0 0 0 1 0 0 0 0 1 0 0 0 0 1 0 0 0 0.5 0"/>
<feBlend mode="overlay" in2="shape" result="effect1_innerShadow"/>
<feColorMatrix in="SourceAlpha" type="matrix" values="0 0 0 0 0 0 0 0 0 0 0 0 0 0 0 0 0 0 127 0" result="hardAlpha"/>
<feOffset dy="-30"/>
<feGaussianBlur stdDeviation="30"/>
<feComposite in2="hardAlpha" operator="arithmetic" k2="-1" k3="1"/>
<feColorMatrix type="matrix" values="0 0 0 0 0 0 0 0 0 0 0 0 0 0 0 0 0 0 0.5 0"/>
<feBlend mode="overlay" in2="effect1_innerShadow" result="effect2_innerShadow"/>
<feColorMatrix in="SourceAlpha" type="matrix" values="0 0 0 0 0 0 0 0 0 0 0 0 0 0 0 0 0 0 127 0" result="hardAlpha"/>
<feOffset dy="5"/>
<feGaussianBlur stdDeviation="7.5"/>
<feComposite in2="hardAlpha" operator="arithmetic" k2="-1" k3="1"/>
<feColorMatrix type="matrix" values="0 0 0 0 1 0 0 0 0 1 0 0 0 0 1 0 0 0 0.7 0"/>
<feBlend mode="overlay" in2="effect2_innerShadow" result="effect3_innerShadow"/>
<feColorMatrix in="SourceAlpha" type="matrix" values="0 0 0 0 0 0 0 0 0 0 0 0 0 0 0 0 0 0 127 0" result="hardAlpha"/>
<feOffset dy="-40"/>
<feGaussianBlur stdDeviation="10"/>
<feComposite in2="hardAlpha" operator="arithmetic" k2="-1" k3="1"/>
<feColorMatrix type="matrix" values="0 0 0 0 0 0 0 0 0 0 0 0 0 0 0 0 0 0 0.25 0"/>
<feBlend mode="overlay" in2="effect3_innerShadow" result="effect4_innerShadow"/>
<feColorMatrix in="SourceAlpha" type="matrix" values="0 0 0 0 0 0 0 0 0 0 0 0 0 0 0 0 0 0 127 0" result="hardAlpha"/>
<feOffset dy="20"/>
<feGaussianBlur stdDeviation="10"/>
<feComposite in2="hardAlpha" operator="arithmetic" k2="-1" k3="1"/>
<feColorMatrix type="matrix" values="0 0 0 0 1 0 0 0 0 1 0 0 0 0 1 0 0 0 0.25 0"/>
<feBlend mode="overlay" in2="effect4_innerShadow" result="effect5_innerShadow"/>
</filter>
<linearGradient id="paint0_linear" x1="512" y1="0" x2="512" y2="1024" gradientUnits="userSpaceOnUse">
<stop stop-color="#EAEAEA"/>
<stop offset="1" stop-color="#D5D5D5"/>
</linearGradient>
</defs>
</svg>
